<?xml version="1.0" encoding="utf-8"?>
<!-- Generator: Adobe Illustrator 26.2.1, SVG Export Plug-In . SVG Version: 6.00 Build 0)  -->
<svg version="1.1" id="Layer_1" xmlns="http://www.w3.org/2000/svg" xmlns:xlink="http://www.w3.org/1999/xlink" x="0px" y="0px"
	 viewBox="0 0 512 512" style="enable-background:new 0 0 512 512;" xml:space="preserve">
<style type="text/css">
	.st0{fill:#FFFFFF;}
</style>
<g>
	<g>
		<path class="st0" d="M433.6,511.9h-25.7c-11.7,0-21.3-9.6-21.3-21.3s9.6-21.3,21.3-21.3h25.9c19.6,0,35.6-16,35.6-35.6V78.2
			c-0.1-19.6-16.1-35.6-35.7-35.6H78.2c-19.6,0-35.6,16-35.6,35.6v355.5c0,19.6,16,35.6,35.6,35.6h200.1c11.7,0,21.3,9.6,21.3,21.3
			c0,11.7-9.6,21.3-21.3,21.3H78.2C35.1,511.9,0,476.8,0,433.6V78.2C0,35.1,35.1,0,78.2,0h355.5C476.8,0,512,35.1,512,78.2v355.5
			C511.9,476.8,476.8,511.9,433.6,511.9z"/>
	</g>
	<g>
		<rect x="21.3" y="129.2" class="st0" width="469.2" height="42.7"/>
	</g>
	<g>
		<g>
			<polygon class="st0" points="234.5,161.7 198.2,139.4 277.4,10.1 313.7,32.5 			"/>
		</g>
		<g>
			
				<rect x="301.1" y="64.7" transform="matrix(0.5224 -0.8527 0.8527 0.5224 106.6208 362.4484)" class="st0" width="151.6" height="42.7"/>
		</g>
		<g>
			
				<rect x="59.3" y="64.6" transform="matrix(0.5225 -0.8526 0.8526 0.5225 -8.781 156.2456)" class="st0" width="151.6" height="42.7"/>
		</g>
	</g>
	<g>
		<g>
			<path class="st0" d="M249.5,421.6c-0.3,0-0.4,0-0.7,0c-10.1-0.3-18.7-7.7-20.4-17.7c-14.9-86.2-78.2-135.6-78.9-136.1
				c-9.3-7.2-11.2-20.5-4-29.9s20.4-11.2,29.9-4.1c2.5,1.9,50.7,39.1,78.9,106.9c16.1-23.2,41.6-47.5,80.5-58.7
				c11.3-3.2,23.2,3.2,26.4,14.5s-3.3,23.2-14.5,26.4c-60.5,17.5-76.2,81.4-76.4,82.1C268.1,414.8,259.4,421.6,249.5,421.6z"/>
		</g>
		<g>
			<path class="st0" d="M378.6,346.8c-35.3,0-64.1-28.8-64.1-64.1s28.8-64.1,64.1-64.1s64.1,28.8,64.1,64.1S413.9,346.8,378.6,346.8
				z M378.6,261.4c-11.9,0-21.5,9.6-21.5,21.5s9.6,21.5,21.5,21.5s21.5-9.6,21.5-21.5S390.4,261.4,378.6,261.4z"/>
		</g>
	</g>
	<g>
		<path class="st0" d="M92.6,511.9c-11.7,0-21.3-9.6-21.3-21.3v-340c0-11.7,9.6-21.3,21.3-21.3s21.3,9.6,21.3,21.3v340
			C114,502.3,104.4,511.9,92.6,511.9z"/>
	</g>
</g>
</svg>
