<?xml version="1.0" encoding="utf-8"?>
<!-- Generator: Adobe Illustrator 26.2.1, SVG Export Plug-In . SVG Version: 6.00 Build 0)  -->
<svg version="1.1" id="Layer_1" xmlns="http://www.w3.org/2000/svg" xmlns:xlink="http://www.w3.org/1999/xlink" x="0px" y="0px"
	 viewBox="0 0 512 512" style="enable-background:new 0 0 512 512;" xml:space="preserve">
<style type="text/css">
	.st0{fill:#FFFFFF;}
</style>
<g>
	<path class="st0" d="M414.9,495.5L16.5,97.1c-22.1-22.1-22.1-58,0-80.2l0.5-0.5c22.1-22.1,58-22.1,80.2,0l398.4,398.4
		c22.1,22.1,22.1,58,0,80.2l-0.5,0.5C472.9,517.7,437,517.7,414.9,495.5z"/>
	<path class="st0" d="M495.5,97.1L97.1,495.5c-22.1,22.1-58,22.1-80.2,0l-0.5-0.5c-22.1-22.1-22.1-58,0-80.2L414.9,16.5
		c22.1-22.1,58-22.1,80.2,0l0.5,0.5C517.7,39.1,517.7,75,495.5,97.1z"/>
</g>
</svg>
