<?xml version="1.0" encoding="utf-8"?>
<!-- Generator: Adobe Illustrator 26.2.1, SVG Export Plug-In . SVG Version: 6.00 Build 0)  -->
<svg version="1.1" id="Layer_1" xmlns="http://www.w3.org/2000/svg" xmlns:xlink="http://www.w3.org/1999/xlink" x="0px" y="0px"
	 viewBox="0 0 512 512" style="enable-background:new 0 0 512 512;" xml:space="preserve">
<style type="text/css">
	.st0{fill:#6EB7EC;}
</style>
<g>
	<g>
		<path class="st0" d="M458.9,510c-29.3,0-53.1-23.8-53.1-53c0-11.3,11.2-95.1,53.1-95.1S512,445.7,512,457
			C512,486.3,488.2,510,458.9,510z M458.9,414.2c-5.4,13.3-10.5,33.4-10.5,42.9c0,5.8,4.7,10.5,10.5,10.5c5.8,0,10.5-4.7,10.5-10.5
			C469.4,447.6,464.3,427.4,458.9,414.2z"/>
	</g>
	<path class="st0" d="M422.1,235.4L301.6,115.1V69.2C301.6,31,270.5,0,232.3,0C220.5,0,211,9.5,211,21.3c0,11.7,9.5,21.3,21.3,21.3
		c14.7,0,26.7,12,26.7,26.7v8c-29.3-15.7-66.7-11.2-91.4,13.4l-9.4,9.3c-8.3,8.3-8.3,21.8,0,30.1c8.3,8.3,21.8,8.3,30.1,0l9.3-9.3
		c13.6-13.6,35.7-13.6,49.3,0l12,12v97.4c0,11.7,9.5,21.3,21.3,21.3c11.8,0,21.3-9.5,21.3-21.3v-54.9l90.4,90.2
		c12.4,12.4,13.5,32,3.1,45.6H49.6c-10.4-13.6-9.3-33.2,3.1-45.6l72.2-72.1c8.3-8.3,8.3-21.8,0-30.1c-8.3-8.3-21.8-8.3-30.1,0
		l-72.2,72.1c-30.2,30.1-30.2,79.2,0,109.3l145,144.7c15.1,15.1,34.9,22.6,54.7,22.6c19.8,0,39.7-7.5,54.8-22.6l145-144.7
		C452.3,314.6,452.3,265.5,422.1,235.4z M247,459.4c-13.6,13.6-35.7,13.6-49.3,0l-106-105.8H353L247,459.4z"/>
</g>
</svg>
