<?xml version="1.0" encoding="utf-8"?>
<!-- Generator: Adobe Illustrator 26.2.1, SVG Export Plug-In . SVG Version: 6.00 Build 0)  -->
<svg version="1.1" id="Layer_1" xmlns="http://www.w3.org/2000/svg" xmlns:xlink="http://www.w3.org/1999/xlink" x="0px" y="0px"
	 viewBox="0 0 512 512" style="enable-background:new 0 0 512 512;" xml:space="preserve">
<style type="text/css">
	.st0{fill:#27272A;}
</style>
<g>
	<g>
		<path class="st0" d="M254,390.3c-11.8,0-21.3-9.6-21.3-21.4V21.4C232.6,9.6,242.2,0,254,0c11.8,0,21.3,9.6,21.3,21.4v347.6
			C275.3,380.7,265.7,390.3,254,390.3z"/>
	</g>
	<g>
		<path class="st0" d="M254,405.7c-5.7,0-11.1-2.3-15.1-6.3L172.6,333c-8.3-8.3-8.3-21.9,0-30.2s21.8-8.3,30.2,0l51.2,51.3
			l53.4-53.5c8.3-8.3,21.8-8.3,30.2,0c8.3,8.3,8.3,21.9,0,30.2L269,399.5C265,403.5,259.6,405.7,254,405.7z"/>
	</g>
	<g>
		<path class="st0" d="M432,512H80c-44.1,0-80-35.9-80-80.1V241c0-44.2,35.9-80.1,80-80.1h41.9c11.8,0,21.3,9.6,21.3,21.4
			s-9.5,21.4-21.3,21.4H80c-20.6,0-37.3,16.8-37.3,37.4v190.9c0,20.6,16.7,37.4,37.3,37.4h352c20.6,0,37.3-16.8,37.3-37.4V241
			c0-20.6-16.7-37.4-37.3-37.4h-41.9c-11.8,0-21.3-9.6-21.3-21.4s9.5-21.4,21.3-21.4H432c44.1,0,80,35.9,80,80.1v190.9
			C512,476.1,476.1,512,432,512z"/>
	</g>
</g>
</svg>
