<?xml version="1.0" encoding="UTF-8"?>
<svg id="Layer_1" xmlns="http://www.w3.org/2000/svg" xmlns:xlink="http://www.w3.org/1999/xlink" version="1.1" viewBox="0 0 512 512">
  <!-- Generator: Adobe Illustrator 29.1.0, SVG Export Plug-In . SVG Version: 2.1.0 Build 142)  -->
  <defs>
    <style>
      .st0 {
        fill: url(#linear-gradient);
      }

      .st1 {
        fill: #fff;
      }

      .st2 {
        opacity: .5;
      }

      .st3 {
        fill: none;
        stroke: #000;
        stroke-miterlimit: 10;
        stroke-width: 3px;
      }
    </style>
    <linearGradient id="linear-gradient" x1="-5.2" y1="52" x2="517.2" y2="460" gradientUnits="userSpaceOnUse">
      <stop offset="0" stop-color="#dcdefb"/>
      <stop offset="1" stop-color="#73c4eb"/>
    </linearGradient>
  </defs>
  <rect class="st0" x="0" y="0" width="512" height="512" rx="69.2" ry="69.2"/>
  <g class="st2">
    <path class="st1" d="M256,433.3c-98,0-177.7-79.7-177.7-177.7s79.7-177.7,177.7-177.7,177.7,79.7,177.7,177.7-79.7,177.7-177.7,177.7ZM256,79.3c-97.2,0-176.3,79.1-176.3,176.3s79.1,176.3,176.3,176.3,176.3-79.1,176.3-176.3-79.1-176.3-176.3-176.3Z"/>
    <path class="st1" d="M406.4,415.6H105.6c-5.3,0-9.6-4.3-9.6-9.6V105.3c0-5.3,4.3-9.6,9.6-9.6h300.8c5.3,0,9.6,4.3,9.6,9.6v300.8c0,5.3-4.3,9.6-9.6,9.6ZM105.6,97c-4.6,0-8.2,3.7-8.2,8.2v300.8c0,4.6,3.7,8.2,8.2,8.2h300.8c4.6,0,8.2-3.7,8.2-8.2V105.3c0-4.6-3.7-8.2-8.2-8.2H105.6Z"/>
    <path class="st1" d="M424.1,397.9H87.9c-5.3,0-9.6-4.3-9.6-9.6V123c0-5.3,4.3-9.6,9.6-9.6h336.2c5.3,0,9.6,4.3,9.6,9.6v265.4c0,5.3-4.3,9.6-9.6,9.6ZM87.9,114.7c-4.6,0-8.2,3.7-8.2,8.2v265.4c0,4.6,3.7,8.2,8.2,8.2h336.2c4.6,0,8.2-3.7,8.2-8.2V123c0-4.6-3.7-8.2-8.2-8.2H87.9Z"/>
    <path class="st1" d="M388.7,433.3H123.3c-5.3,0-9.6-4.3-9.6-9.6V87.6c0-5.3,4.3-9.6,9.6-9.6h265.4c5.3,0,9.6,4.3,9.6,9.6v336.2c0,5.3-4.3,9.6-9.6,9.6ZM123.3,79.3c-4.6,0-8.2,3.7-8.2,8.2v336.2c0,4.6,3.7,8.2,8.2,8.2h265.4c4.6,0,8.2-3.7,8.2-8.2V87.6c0-4.6-3.7-8.2-8.2-8.2H123.3Z"/>
    <path class="st1" d="M424.1,433.3H87.9c-5.3,0-9.6-4.3-9.6-9.6V87.6c0-5.3,4.3-9.6,9.6-9.6h336.2c5.3,0,9.6,4.3,9.6,9.6v336.2c0,5.3-4.3,9.6-9.6,9.6ZM87.9,79.3c-4.6,0-8.2,3.7-8.2,8.2v336.2c0,4.6,3.7,8.2,8.2,8.2h336.2c4.6,0,8.2-3.7,8.2-8.2V87.6c0-4.6-3.7-8.2-8.2-8.2H87.9Z"/>
    <path class="st1" d="M459.5,468.7H52.5c-5.3,0-9.6-4.3-9.6-9.6V52.2c0-5.3,4.3-9.6,9.6-9.6h407c5.3,0,9.6,4.3,9.6,9.6v407c0,5.3-4.3,9.6-9.6,9.6ZM52.5,44c-4.5,0-8.2,3.7-8.2,8.2v407c0,4.5,3.7,8.2,8.2,8.2h407c4.5,0,8.2-3.7,8.2-8.2V52.2c0-4.5-3.7-8.2-8.2-8.2H52.5Z"/>
  </g>
  <path class="st1" d="M20.8,19.9c-.3.3-.6.6-.9.9l471.3,471.3c.3-.3.6-.6.9-.9L20.8,19.9Z"/>
  <path class="st1" d="M491.2,19.9L19.9,491.2c.3.3.6.6.9.9L492.1,20.8c-.3-.3-.6-.6-.9-.9Z"/>
  <g class="st2">
    <rect class="st1" x="255.3" y="0" width="1.3" height="512"/>
  </g>
  <g class="st2">
    <rect class="st1" y="255.3" width="512" height="1.3"/>
    <g>
      <rect class="st1" y="186.3" width="512" height="1.3"/>
      <rect class="st1" y="324.3" width="512" height="1.3"/>
    </g>
  </g>
  <g class="st2">
    <g>
      <rect class="st1" x="186.3" y="0" width="1.3" height="512"/>
      <rect class="st1" x="324.3" y="0" width="1.3" height="512"/>
    </g>
  </g>
  <g class="st2">
    <path class="st3" d="M211.8,412.4"/>
  </g>
  <g>
    <path class="st1" d="M354.8,358.7c-1.6,0-3.2-.3-4.7-.9-5.4-2.1-8.8-7.4-8.4-13.1,0-.8,0-1.7,0-2.6,0-39.4-20.7-76.3-53.7-97.1-3.6,9.5-5.6,19.9-6.6,28.1-1.2,9.1-8,16.2-17,17.7-9.1,1.5-17.8-3-21.9-11.2-9.2-18.3-11.2-38.1-11.1-51.9-1.3,0-2.7,0-4,0-28.7,0-56.1,10.7-77.2,30-6.5,5.9-15.9,7-23.6,2.8-7.6-4.2-11.5-12.5-9.9-21.1,11.9-61.5,62.1-106.9,123.7-113.2,7.3-15.5,23.7-39.3,57.9-46.7,8.3-1.8,16.6,1.6,21.2,8.8,4.6,7.2,4.2,16.2-1,22.9-6.3,8.4-9.4,16.8-9.4,25.1,46.3,19.4,79.5,62.7,85.5,112.4,4.6,38.1-5.9,75.4-29.5,105-2.6,3.2-6.4,5-10.3,5ZM282.4,213.8c1.9,0,3.9.4,5.7,1.3,36.9,17.7,63.9,50.8,74.7,89.2,5.8-16.5,7.8-34.3,5.6-52.4-5.1-42.6-34.9-79.4-75.8-93.7-4.3-1.5-7.6-5.2-8.5-9.7-2.7-12.5-1.2-25.2,4.2-37.5-15.9,8.7-23.2,23.1-26.4,32.1-1.8,5.1-6.5,8.6-11.9,8.8-46.7,1.9-86.5,31.5-102.3,74.1,23.3-16,50.9-24.7,79.6-24.7s13.3.5,19.7,1.4c7,1,11.9,7.3,11.2,14.4-.5,4.6-1.3,17,1.3,30.8,2.6-9.6,6.3-19.5,11.8-28.1,2.5-3.9,6.7-6,11.1-6ZM304,105.2s0,0,0,0c0,0,0,0,0,0ZM297.5,95.3h0c0,0,0,0,0,0Z"/>
    <g>
      <path class="st1" d="M304.4,374.5c-13.9,0-27.5-3.9-39.5-11.4-6.2-3.9-8.1-12-4.2-18.1,3.9-6.2,12-8.1,18.1-4.2,22.7,14.2,52.8,7.2,66.9-15.5,3.9-6.2,12-8.1,18.1-4.2,6.2,3.9,8.1,12,4.2,18.1-10.6,17-27.2,28.8-46.7,33.3-5.7,1.3-11.4,2-17.1,2Z"/>
      <path class="st1" d="M380.7,433c-2.4,0-4.8-.6-7-2-35.1-21.9-45.8-68.2-23.9-103.2,3.9-6.2,12-8.1,18.1-4.2,6.2,3.9,8.1,12,4.2,18.1-14.2,22.7-7.2,52.8,15.5,66.9,6.2,3.9,8.1,12,4.2,18.1-2.5,4-6.8,6.2-11.2,6.2Z"/>
    </g>
  </g>
</svg>