<?xml version="1.0" encoding="utf-8"?>
<!-- Generator: Adobe Illustrator 26.2.1, SVG Export Plug-In . SVG Version: 6.00 Build 0)  -->
<svg version="1.1" id="Layer_1" xmlns="http://www.w3.org/2000/svg" xmlns:xlink="http://www.w3.org/1999/xlink" x="0px" y="0px"
	 viewBox="0 0 512 512" style="enable-background:new 0 0 512 512;" xml:space="preserve">
<style type="text/css">
	.st0{fill:url(#SVGID_1_);}
	.st1{opacity:0.5;}
	.st2{fill:#FFFFFF;}
	.st3{fill:none;stroke:#000000;stroke-width:3;stroke-miterlimit:10;}
</style>
<linearGradient id="SVGID_1_" gradientUnits="userSpaceOnUse" x1="-5.1844" y1="459.9878" x2="517.1844" y2="52.0122" gradientTransform="matrix(1 0 0 -1 0 512)">
	<stop  offset="0" style="stop-color:#DCDEFB"/>
	<stop  offset="1" style="stop-color:#73C4EB"/>
</linearGradient>
<path class="st0" d="M69.2,0h373.6C481,0,512,31,512,69.2v373.6c0,38.2-31,69.2-69.2,69.2H69.2C31,512,0,481,0,442.8V69.2
	C0,31,31,0,69.2,0z"/>
<g class="st1">
	<path class="st2" d="M256,433.3c-98,0-177.7-79.7-177.7-177.7S158,77.9,256,77.9s177.7,79.7,177.7,177.7S354,433.3,256,433.3z
		 M256,79.3c-97.2,0-176.3,79.1-176.3,176.3S158.8,431.9,256,431.9s176.3-79.1,176.3-176.3S353.2,79.3,256,79.3L256,79.3z"/>
	<path class="st2" d="M406.4,415.6H105.6c-5.3,0-9.6-4.3-9.6-9.6V105.3c0-5.3,4.3-9.6,9.6-9.6h300.8c5.3,0,9.6,4.3,9.6,9.6v300.8
		C416,411.4,411.7,415.7,406.4,415.6L406.4,415.6z M105.6,97c-4.6,0-8.2,3.7-8.2,8.2V406c0,4.6,3.7,8.2,8.2,8.2h300.8
		c4.6,0,8.2-3.7,8.2-8.2V105.3c0-4.6-3.7-8.2-8.2-8.2H105.6V97z"/>
	<path class="st2" d="M424.1,397.9H87.9c-5.3,0-9.6-4.3-9.6-9.6V123c0-5.3,4.3-9.6,9.6-9.6h336.2c5.3,0,9.6,4.3,9.6,9.6v265.4
		c0,5.3-4.3,9.6-9.6,9.6V397.9z M87.9,114.7c-4.6,0-8.2,3.7-8.2,8.2v265.4c0,4.6,3.7,8.2,8.2,8.2h336.2c4.6,0,8.2-3.7,8.2-8.2V123
		c0-4.6-3.7-8.2-8.2-8.2H87.9V114.7z"/>
	<path class="st2" d="M388.7,433.3H123.3c-5.3,0-9.6-4.3-9.6-9.6V87.6c0-5.3,4.3-9.6,9.6-9.6h265.4c5.3,0,9.6,4.3,9.6,9.6v336.2
		c0,5.3-4.3,9.6-9.6,9.6V433.3z M123.3,79.3c-4.6,0-8.2,3.7-8.2,8.2v336.2c0,4.6,3.7,8.2,8.2,8.2h265.4c4.6,0,8.2-3.7,8.2-8.2V87.6
		c0-4.6-3.7-8.2-8.2-8.2L123.3,79.3L123.3,79.3z"/>
	<path class="st2" d="M424.1,433.3H87.9c-5.3,0-9.6-4.3-9.6-9.6V87.6c0-5.3,4.3-9.6,9.6-9.6h336.2c5.3,0,9.6,4.3,9.6,9.6v336.2
		c0,5.3-4.3,9.6-9.6,9.6V433.3z M87.9,79.3c-4.6,0-8.2,3.7-8.2,8.2v336.2c0,4.6,3.7,8.2,8.2,8.2h336.2c4.6,0,8.2-3.7,8.2-8.2V87.6
		c0-4.6-3.7-8.2-8.2-8.2L87.9,79.3L87.9,79.3z"/>
	<path class="st2" d="M459.5,468.7h-407c-5.3,0-9.6-4.3-9.6-9.6V52.2c0-5.3,4.3-9.6,9.6-9.6h407c5.3,0,9.6,4.3,9.6,9.6v407
		c0,5.3-4.3,9.6-9.6,9.6V468.7z M52.5,44c-4.5,0-8.2,3.7-8.2,8.2v407c0,4.5,3.7,8.2,8.2,8.2h407c4.5,0,8.2-3.7,8.2-8.2v-407
		c0-4.5-3.7-8.2-8.2-8.2H52.5z"/>
</g>
<path class="st2" d="M20.8,19.9c-0.3,0.3-0.6,0.6-0.9,0.9l471.3,471.3c0.3-0.3,0.6-0.6,0.9-0.9L20.8,19.9z"/>
<path class="st2" d="M491.2,19.9L19.9,491.2c0.3,0.3,0.6,0.6,0.9,0.9L492.1,20.8C491.8,20.5,491.5,20.2,491.2,19.9z"/>
<g class="st1">
	<rect x="255.3" class="st2" width="1.3" height="512"/>
</g>
<g class="st1">
	<rect y="255.3" class="st2" width="512" height="1.3"/>
	<g>
		<rect y="186.3" class="st2" width="512" height="1.3"/>
		<rect y="324.3" class="st2" width="512" height="1.3"/>
	</g>
</g>
<g class="st1">
	<g>
		<rect x="186.3" class="st2" width="1.3" height="512"/>
		<rect x="324.3" class="st2" width="1.3" height="512"/>
	</g>
</g>
<g class="st1">
	<path class="st3" d="M211.8,412.4"/>
</g>
<g>
	<g>
		<g>
			<path class="st2" d="M253.1,294.5c-7.3,0-13.3-5.9-13.3-13.3c0-17,9-32.6,24-41.6c7.8-4.7,11.6-13.6,9.7-22.7
				c-1.6-7.7-7.9-14-15.6-15.7c-10.5-2.3-18.4,3-22.2,8.7c-4.1,6.1-12.4,7.7-18.4,3.6c-6.1-4.1-7.7-12.4-3.6-18.4
				c11-16.2,30.6-24,49.9-19.8c17.8,3.9,32.2,18.4,35.9,36.2c4.2,20-4.6,40.5-22,50.9c-7,4.2-11.2,11.3-11.2,18.9
				C266.4,288.6,260.4,294.5,253.1,294.5z"/>
		</g>
		<g>
			<path class="st2" d="M252.7,337.9c-7.3,0-13.3-5.9-13.3-13.3V321c0-7.3,5.9-13.3,13.3-13.3S266,313.6,266,321v3.6
				C266,331.9,260,337.9,252.7,337.9z"/>
		</g>
	</g>
	<g>
		<path class="st2" d="M366.6,415.3H145.4c-26.8,0-48.7-21.8-48.7-48.7V145.4c0-26.8,21.8-48.7,48.7-48.7h221.2
			c26.8,0,48.7,21.8,48.7,48.7v118c0,7.3-5.9,13.3-13.3,13.3c-7.3,0-13.3-5.9-13.3-13.3v-118c0-12.2-9.9-22.1-22.1-22.1H145.4
			c-12.2,0-22.1,9.9-22.1,22.1v221.2c0,12.2,9.9,22.1,22.1,22.1h221.2c12.2,0,22.1-9.9,22.1-22.1V356c0-7.3,5.9-13.3,13.3-13.3
			c7.3,0,13.3,5.9,13.3,13.3v10.6C415.3,393.5,393.5,415.3,366.6,415.3z"/>
	</g>
</g>
</svg>
