<?xml version="1.0" encoding="UTF-8"?>
<svg id="Layer_1" xmlns="http://www.w3.org/2000/svg" xmlns:xlink="http://www.w3.org/1999/xlink" version="1.1" viewBox="0 0 180 180">
  <!-- Generator: Adobe Illustrator 29.1.0, SVG Export Plug-In . SVG Version: 2.1.0 Build 142)  -->
  <defs>
    <style>
      .st0 {
        fill: url(#linear-gradient);
      }

      .st1 {
        fill: #fff;
      }

      .st2 {
        opacity: .5;
      }

      .st3 {
        fill: none;
        stroke: #000;
        stroke-miterlimit: 10;
        stroke-width: 3px;
      }
    </style>
    <linearGradient id="linear-gradient" x1="2" y1="160.7" x2="178" y2="23.3" gradientTransform="translate(0 182) scale(1 -1)" gradientUnits="userSpaceOnUse">
      <stop offset="0" stop-color="#dcdefb"/>
      <stop offset="1" stop-color="#73c4eb"/>
    </linearGradient>
  </defs>
  <rect class="st0" width="180" height="180" rx="36.3" ry="36.3"/>
  <g class="st2">
    <path class="st3" d="M74.5,145"/>
  </g>
  <g>
    <path class="st1" d="M109.5,137.7s0,0,0,0c0,0,0,0,0,0h0Z"/>
    <path class="st1" d="M142.9,151.4c-8.1-5-11.2-15-7.9-23.6,8.7-11.7,12.5-26,10.7-40.7-2.4-20-15.8-37.4-34.4-45.2,0-3.3,1.2-6.7,3.8-10.1,2.1-2.7,2.3-6.3.4-9.2-1.9-2.9-5.2-4.3-8.5-3.5-13.8,3-20.4,12.6-23.3,18.8-24.8,2.5-45,20.8-49.8,45.5-.6,3.5.9,6.8,4,8.5,3.1,1.7,6.9,1.2,9.5-1.1,8.5-7.8,19.5-12.1,31.1-12.1h1.6c0,5.6.8,13.5,4.5,20.9,1.6,3.3,5.1,5.1,8.8,4.5,3.6-.6,6.4-3.5,6.8-7.1.4-3.3,1.2-7.5,2.7-11.3,12.1,7.6,20,20.6,21.4,34.8-6.2,7.1-16.8,8.9-25.1,3.8-2.5-1.6-5.7-.8-7.3,1.7-1.6,2.5-.8,5.7,1.7,7.3,4.8,3,10.3,4.6,15.9,4.6,2.3,0,4.6-.3,6.8-.8,2.4-.6,4.7-1.4,6.9-2.5-.1,10.2,4.9,20.2,14.2,26,.9.6,1.9.8,2.8.8h0c1.8,0,3.5-.9,4.5-2.5,1.6-2.5.8-5.7-1.7-7.3ZM102.9,73.5c-.7-.4-1.5-.5-2.3-.5h0c-1.8,0-3.5.8-4.5,2.4-2.2,3.5-3.7,7.4-4.7,11.3-1-5.6-.7-10.5-.5-12.4.3-2.9-1.7-5.4-4.5-5.8-2.6-.4,3.6-.6-7.9-.6s-22.7,3.5-32,9.9c6.4-17.1,22.4-29,41.2-29.8,2.2,0,4.1-1.5,4.8-3.5,1.3-3.6,4.2-9.4,10.6-12.9-2.2,4.9-2.8,10.1-1.7,15.1.4,1.8,1.7,3.3,3.4,3.9,16.5,5.8,28.4,20.6,30.5,37.7.9,7.3,0,14.4-2.3,21.1-4.3-15.4-15.2-28.8-30.1-35.9Z"/>
  </g>
</svg>