<?xml version="1.0" encoding="UTF-8"?>
<svg id="Layer_1" xmlns="http://www.w3.org/2000/svg" xmlns:xlink="http://www.w3.org/1999/xlink" version="1.1" viewBox="0 0 32 32">
  <!-- Generator: Adobe Illustrator 29.1.0, SVG Export Plug-In . SVG Version: 2.1.0 Build 142)  -->
  <defs>
    <style>
      .st0 {
        fill: url(#linear-gradient);
      }

      .st1 {
        fill: #fff;
      }

      .st2 {
        opacity: .5;
      }

      .st3 {
        fill: none;
        stroke: #000;
        stroke-miterlimit: 10;
        stroke-width: 3px;
      }
    </style>
    <linearGradient id="linear-gradient" x1="-.3" y1="30.7" x2="32.3" y2="5.3" gradientTransform="translate(0 34) scale(1 -1)" gradientUnits="userSpaceOnUse">
      <stop offset="0" stop-color="#dcdefb"/>
      <stop offset="1" stop-color="#73c4eb"/>
    </linearGradient>
  </defs>
  <rect class="st0" x="0" y="0" width="32" height="32" rx="4.5" ry="4.5"/>
  <g class="st2">
    <path class="st3" d="M13.2,25.8"/>
  </g>
  <g>
    <polygon class="st1" points="19.5 24.5 19.5 24.5 19.4 24.5 19.5 24.5"/>
    <path class="st1" d="M25.4,26.9c-1.4-.9-2-2.7-1.4-4.2,1.5-2.1,2.2-4.6,1.9-7.2-.4-3.6-2.8-6.7-6.1-8,0-.6.2-1.2.7-1.8.4-.5.4-1.1,0-1.6-.3-.5-.9-.8-1.5-.6-2.4.5-3.6,2.2-4.1,3.3-4.4.5-8,3.7-8.8,8.1-.1.6.2,1.2.7,1.5.6.3,1.2.2,1.7-.2,1.5-1.4,3.5-2.1,5.5-2.1h.3c0,1,.1,2.4.8,3.7.3.6.9.9,1.6.8.6-.1,1.1-.6,1.2-1.3,0-.6.2-1.3.5-2,2.1,1.4,3.6,3.7,3.8,6.2-1.1,1.3-3,1.6-4.5.7-.4-.3-1-.1-1.3.3-.3.4-.1,1,.3,1.3.9.5,1.8.8,2.8.8.4,0,.8,0,1.2-.1.4,0,.8-.2,1.2-.4,0,1.8.9,3.6,2.5,4.6.2.1.3.1.5.1h0c.3,0,.6-.2.8-.5.3-.4.1-1-.3-1.3ZM18.3,13.1c-.1,0-.3,0-.4,0h0c-.3,0-.6.2-.8.4-.4.6-.7,1.3-.8,2-.2-1-.1-1.9,0-2.2,0-.5-.3-1-.8-1-.5,0,.6-.1-1.4-.1s-4,.6-5.7,1.8c1.1-3,4-5.2,7.3-5.3.4,0,.7-.3.9-.6.2-.6.8-1.7,1.9-2.3-.4.9-.5,1.8-.3,2.7,0,.3.3.6.6.7,2.9,1,5.1,3.7,5.4,6.7.2,1.3,0,2.6-.4,3.7-.8-2.7-2.7-5.1-5.3-6.4Z"/>
  </g>
</svg>