<?xml version="1.0" encoding="UTF-8"?>
<svg id="Layer_1" xmlns="http://www.w3.org/2000/svg" xmlns:xlink="http://www.w3.org/1999/xlink" version="1.1" viewBox="0 0 512 512">
  <!-- Generator: Adobe Illustrator 29.1.0, SVG Export Plug-In . SVG Version: 2.1.0 Build 142)  -->
  <defs>
    <style>
      .st0 {
        fill: url(#linear-gradient);
      }

      .st1 {
        fill: #fff;
      }

      .st2 {
        opacity: .5;
      }

      .st3 {
        fill: none;
        stroke: #000;
        stroke-miterlimit: 10;
        stroke-width: 3px;
      }
    </style>
    <linearGradient id="linear-gradient" x1="-5.2" y1="462" x2="517.2" y2="54" gradientTransform="translate(0 514) scale(1 -1)" gradientUnits="userSpaceOnUse">
      <stop offset="0" stop-color="#dcdefb"/>
      <stop offset="1" stop-color="#73c4eb"/>
    </linearGradient>
  </defs>
  <rect class="st0" width="512" height="512" rx="69.2" ry="69.2"/>
  <g class="st2">
    <path class="st3" d="M211.8,412.4"/>
  </g>
  <g>
    <path class="st1" d="M311.4,391.6s0,0-.1,0c0,0,0,0-.1,0h.2Z"/>
    <path class="st1" d="M406.6,430.6c-22.9-14.3-31.9-42.8-22.4-67.1,24.7-33.1,35.5-74.1,30.5-115.9-6.9-56.9-44.9-106.4-97.8-128.6,0-9.5,3.5-19.1,10.8-28.7,6-7.7,6.4-18,1.1-26.2-5.3-8.2-14.8-12.1-24.3-10.1-39.1,8.5-57.9,35.7-66.3,53.4-70.5,7.2-127.9,59.2-141.6,129.5-1.8,9.8,2.6,19.3,11.3,24.1,8.8,4.8,19.6,3.5,27-3.2,24.1-22.1,55.5-34.3,88.4-34.3h4.6c-.1,15.8,2.2,38.5,12.7,59.4,4.7,9.4,14.6,14.5,25.1,12.8,10.3-1.7,18.1-9.8,19.5-20.3,1.1-9.4,3.4-21.3,7.6-32.2,34.3,21.6,57,58.5,60.9,98.9-17.5,20.3-47.9,25.4-71.4,10.7-7-4.5-16.3-2.3-20.7,4.8-4.5,7-2.3,16.3,4.8,20.7,13.7,8.6,29.2,13,45.1,13,6.5,0,13-.8,19.4-2.3,6.9-1.6,13.5-4,19.6-7.1-.4,29,13.9,57.6,40.3,74,2.5,1.6,5.3,2.3,8,2.3h-.1c5-.1,10-2.6,12.8-7.2,4.5-7,2.3-16.3-4.8-20.7ZM292.7,209.2c-2.1-1-4.3-1.5-6.5-1.5h0c-5,0-9.8,2.4-12.7,6.9-6.3,9.8-10.5,21.2-13.5,32.2-3-15.8-2.1-30-1.5-35.2.8-8.1-4.8-15.3-12.8-16.5-7.3-1,10.3-1.6-22.5-1.6s-64.4,10-91.1,28.3c18.1-48.8,63.6-82.6,117.1-84.8,6.2-.2,11.6-4.2,13.6-10.1,3.7-10.3,12-26.8,30.2-36.7-6.2,14.1-7.9,28.6-4.8,42.9,1,5.1,4.8,9.4,9.7,11.1,46.8,16.4,80.9,58.5,86.7,107.2,2.5,20.7.2,41.1-6.4,60-12.4-43.9-43.3-81.8-85.5-102.1Z"/>
  </g>
</svg>