<?xml version="1.0" encoding="UTF-8"?>
<svg id="Layer_1" xmlns="http://www.w3.org/2000/svg" xmlns:xlink="http://www.w3.org/1999/xlink" version="1.1" viewBox="0 0 16 16">
  <!-- Generator: Adobe Illustrator 29.1.0, SVG Export Plug-In . SVG Version: 2.1.0 Build 142)  -->
  <defs>
    <style>
      .st0 {
        fill: url(#linear-gradient);
      }

      .st1 {
        fill: #fff;
      }

      .st2 {
        opacity: .5;
      }

      .st3 {
        fill: none;
        stroke: #000;
        stroke-miterlimit: 10;
        stroke-width: 3px;
      }
    </style>
    <linearGradient id="linear-gradient" x1=".3" y1="16" x2="15.7" y2="4" gradientTransform="translate(0 18) scale(1 -1)" gradientUnits="userSpaceOnUse">
      <stop offset="0" stop-color="#dcdefb"/>
      <stop offset="1" stop-color="#73c4eb"/>
    </linearGradient>
  </defs>
  <rect class="st0" x="0" y="0" width="16" height="16" rx="3.6" ry="3.6"/>
  <g class="st2">
    <path class="st3" d="M6.6,12.9"/>
  </g>
  <g>
    <polygon class="st1" points="9.7 12.2 9.7 12.2 9.7 12.2 9.7 12.2"/>
    <path class="st1" d="M12.7,13.5c-.7-.4-1-1.3-.7-2.1.8-1,1.1-2.3,1-3.6-.2-1.8-1.4-3.3-3.1-4,0-.3.1-.6.3-.9.2-.2.2-.6,0-.8-.2-.3-.5-.4-.8-.3-1.2.3-1.8,1.1-2.1,1.7-2.2.2-4,1.8-4.4,4,0,.3,0,.6.4.8.3.2.6.1.8-.1.8-.7,1.7-1.1,2.8-1.1h.1c0,.5,0,1.2.4,1.9.1.3.5.5.8.4.3,0,.6-.3.6-.6,0-.3.1-.7.2-1,1.1.7,1.8,1.8,1.9,3.1-.5.6-1.5.8-2.2.3-.2-.1-.5,0-.6.2-.1.2,0,.5.2.6.4.3.9.4,1.4.4.2,0,.4,0,.6,0,.2,0,.4-.1.6-.2,0,.9.4,1.8,1.3,2.3,0,0,.2,0,.3,0h0c.2,0,.3,0,.4-.2.1-.2,0-.5-.2-.6ZM9.1,6.5c0,0-.1,0-.2,0h0c-.2,0-.3,0-.4.2-.2.3-.3.7-.4,1,0-.5,0-.9,0-1.1,0-.3-.2-.5-.4-.5-.2,0,.3,0-.7,0s-2,.3-2.8.9c.6-1.5,2-2.6,3.7-2.7.2,0,.4-.1.4-.3.1-.3.4-.8.9-1.1-.2.4-.2.9-.2,1.3,0,.2.2.3.3.3,1.5.5,2.5,1.8,2.7,3.4,0,.6,0,1.3-.2,1.9-.4-1.4-1.4-2.6-2.7-3.2Z"/>
  </g>
</svg>