<?xml version="1.0" encoding="utf-8"?>
<!-- Generator: Adobe Illustrator 26.2.1, SVG Export Plug-In . SVG Version: 6.00 Build 0)  -->
<svg version="1.1" id="Layer_1" xmlns="http://www.w3.org/2000/svg" xmlns:xlink="http://www.w3.org/1999/xlink" x="0px" y="0px"
	 viewBox="0 0 512 512" style="enable-background:new 0 0 512 512;" xml:space="preserve">
<style type="text/css">
	.st0{fill:#6EB7EC;}
</style>
<g>
	<path class="st0" d="M433.7,511.6H78.3C35.1,511.6,0,476.5,0,433.5V77.9C0,34.8,35.1-0.4,78.3-0.4h51.3c11.7,0,21.3,9.6,21.3,21.3
		s-9.6,21.3-21.3,21.3H78.3c-19.6,0-35.6,16-35.6,35.6v355.6c0,19.6,16,35.6,35.6,35.6h355.6c19.6,0,35.6-16,35.6-35.6V77.9
		c0-19.6-16-35.6-35.6-35.6H256c-11.7,0-21.3-9.6-21.3-21.3S244.3-0.4,256-0.4h177.7c43.1,0,78.3,35.1,78.3,78.3v355.6
		C512,476.5,476.9,511.6,433.7,511.6z"/>
</g>
<g>
	<path class="st0" d="M21.3,391.5c-5.5,0-10.9-2.1-15.1-6.3c-8.3-8.3-8.3-21.9,0-30.1l59.2-59.2c28.8-28.8,75.7-28.8,104.5,0
		c12.1,12.1,32,12.1,44.1,0l81.2-81.2c14-14,32.5-21.6,52.3-21.6c19.7,0,38.3,7.7,52.3,21.6l105.9,105.9c8.3,8.3,8.3,21.9,0,30.1
		s-21.9,8.3-30.1,0L369.7,244.8c-11.9-11.9-32.4-11.9-44.1,0L244.4,326c-28.8,28.8-75.7,28.8-104.5,0c-11.9-11.7-32.4-11.9-44.1,0
		l-59.2,59.2C32.3,389.3,26.8,391.5,21.3,391.5z"/>
</g>
<g>
	<path class="st0" d="M163.6,241.5c-43.1,0-78.3-35.1-78.3-78.3s35.1-78.3,78.3-78.3s78.3,35.1,78.3,78.3S206.7,241.5,163.6,241.5z
		 M163.6,127.6c-19.6,0-35.6,16-35.6,35.6s16,35.6,35.6,35.6s35.6-16,35.6-35.6S183.2,127.6,163.6,127.6z"/>
</g>
</svg>
