<?xml version="1.0" encoding="utf-8"?>
<!-- Generator: Adobe Illustrator 26.2.1, SVG Export Plug-In . SVG Version: 6.00 Build 0)  -->
<svg version="1.1" id="Layer_1" xmlns="http://www.w3.org/2000/svg" xmlns:xlink="http://www.w3.org/1999/xlink" x="0px" y="0px"
	 viewBox="0 0 512 512" style="enable-background:new 0 0 512 512;" xml:space="preserve">
<style type="text/css">
	.st0{fill:#FAFAFA;}
</style>
<g>
	<path class="st0" d="M256,450c-13.6,0-27.2-3.9-39.1-11.7C161.3,401.6,66.4,305,64.1,175.6c0-0.2-0.1-1.3-0.1-2.4
		c-0.9-47.7,29.2-90.5,73-104.1c45.2-14,92.4,2.2,119,37.5c26.6-35.3,73.7-51.6,119-37.5c43.9,13.6,73.9,56.4,73,104.2
		c0,1,0,2-0.1,3.1c-0.5,31.4-6.9,63.6-18.8,94.9c-3.2,8.3-12.4,12.4-20.7,9.2c-8.2-3.2-12.4-12.4-9.2-20.7
		c10.6-27.8,16.3-56.3,16.8-84.8l0.1-2.2c0.6-34.2-19.7-63.6-50.5-73.1c-45.7-14.1-82.8,13-94.4,45.8c-2.3,6.4-8.3,10.6-15.1,10.6
		c-6.8,0-12.8-4.3-15.1-10.6c-11.7-32.8-48.7-59.9-94.4-45.8c-30.8,9.5-51.1,38.9-50.5,73l0.1,1.4c2.1,116.9,88,204.2,138.5,237.4
		c13,8.6,29.9,8.6,42.9,0c21.6-14.2,45.3-35.6,65.1-58.6c5.8-6.7,15.9-7.4,22.6-1.7c6.7,5.8,7.5,15.9,1.7,22.6
		c-29.6,34.4-57.7,55.1-71.7,64.4C283.2,446.1,269.6,450,256,450z"/>
</g>
</svg>
