<?xml version="1.0" encoding="utf-8"?>
<!-- Generator: Adobe Illustrator 26.2.1, SVG Export Plug-In . SVG Version: 6.00 Build 0)  -->
<svg version="1.1" id="Layer_1" xmlns="http://www.w3.org/2000/svg" xmlns:xlink="http://www.w3.org/1999/xlink" x="0px" y="0px"
	 viewBox="0 0 512 512" style="enable-background:new 0 0 512 512;" xml:space="preserve">
<style type="text/css">
	.st0{fill:#6EB7EC;}
</style>
<g>
	<g>
		<g>
			<path class="st0" d="M251.3,317.9c-11.8,0-21.3-9.6-21.3-21.3c0-27.4,14.4-52.4,38.6-66.9c12.5-7.5,18.6-21.8,15.6-36.4
				c-2.6-12.4-12.7-22.6-25.1-25.3c-16.9-3.6-29.5,4.8-35.7,14c-6.6,9.8-19.9,12.3-29.6,5.7c-9.8-6.6-12.3-19.9-5.7-29.6
				c17.6-26.1,49.1-38.5,80.1-31.8c28.5,6.2,51.7,29.6,57.8,58.2c6.8,32.1-7.4,65-35.3,81.8c-11.2,6.8-17.9,18.1-17.9,30.4
				C272.7,308.4,263.1,317.9,251.3,317.9z"/>
		</g>
		<g>
			<path class="st0" d="M250.7,387.5c-11.8,0-21.3-9.6-21.3-21.3v-5.8c0-11.8,9.5-21.3,21.3-21.3s21.3,9.6,21.3,21.3v5.8
				C272.1,378,262.5,387.5,250.7,387.5z"/>
		</g>
	</g>
	<g>
		<path class="st0" d="M433.8,512H78.2C35.1,512,0,476.9,0,433.8V78.2C0,35.1,35.1,0,78.2,0h355.6C476.9,0,512,35.1,512,78.2v189.6
			c0,11.8-9.5,21.3-21.3,21.3c-11.8,0-21.3-9.5-21.3-21.3V78.2c0-19.6-16-35.6-35.6-35.6H78.2c-19.6,0-35.6,16-35.6,35.6v355.6
			c0,19.6,16,35.6,35.6,35.6h355.6c19.6,0,35.6-15.9,35.6-35.6v-17c0-11.8,9.5-21.3,21.3-21.3c11.8,0,21.3,9.6,21.3,21.3v17
			C512,476.9,476.9,512,433.8,512z"/>
	</g>
</g>
</svg>
