<?xml version="1.0" encoding="utf-8"?>
<!-- Generator: Adobe Illustrator 26.2.1, SVG Export Plug-In . SVG Version: 6.00 Build 0)  -->
<svg version="1.1" id="Layer_1" xmlns="http://www.w3.org/2000/svg" xmlns:xlink="http://www.w3.org/1999/xlink" x="0px" y="0px"
	 viewBox="0 0 512 512" style="enable-background:new 0 0 512 512;" xml:space="preserve">
<style type="text/css">
	.st0{fill:#A1A1AA;}
</style>
<g>
	<g>
		<path class="st0" d="M215.4,432.1C96.6,432.1,0,335.5,0,216.7S96.6,1.3,215.4,1.3c52.7,0,103.5,19.3,142.9,54.2
			c8.8,7.8,9.6,21.2,1.8,29.9c-7.8,8.7-21.2,9.6-29.9,1.8c-31.7-28.1-72.4-43.6-114.8-43.6c-95.4,0-173,77.6-173,173
			c0,95.4,77.6,173,173,173c95.4,0,173-77.6,173-173c0-14.6-1.8-29.1-5.4-43.1c-2.9-11.3,3.9-22.9,15.3-25.8
			c11.3-2.9,22.9,3.9,25.8,15.2c4.5,17.4,6.7,35.4,6.7,53.6C430.8,335.5,334.2,432.1,215.4,432.1z"/>
	</g>
	<g>
		<path class="st0" d="M98.9,234.4c-11.7,0-21.2-9.5-21.2-21.2c0-74,60.2-134.2,134.2-134.2c11.7,0,21.2,9.5,21.2,21.2
			s-9.5,21.2-21.2,21.2c-50.6,0-91.8,41.2-91.8,91.8C120.1,224.9,110.6,234.4,98.9,234.4z"/>
	</g>
	<g>
		<path class="st0" d="M490.8,510.7c-5.4,0-10.8-2.1-15-6.2L348.7,377.4c-8.3-8.3-8.3-21.7,0-30c8.3-8.3,21.7-8.3,30,0l127.1,127.1
			c8.3,8.3,8.3,21.7,0,30C501.7,508.6,496.2,510.7,490.8,510.7z"/>
	</g>
</g>
</svg>
