<?xml version="1.0" encoding="utf-8"?>
<!-- Generator: Adobe Illustrator 26.2.1, SVG Export Plug-In . SVG Version: 6.00 Build 0)  -->
<svg version="1.1" id="Layer_1" xmlns="http://www.w3.org/2000/svg" xmlns:xlink="http://www.w3.org/1999/xlink" x="0px" y="0px"
	 viewBox="0 0 512 512" style="enable-background:new 0 0 512 512;" xml:space="preserve">
<style type="text/css">
	.st0{fill:#6EB7EC;}
</style>
<g>
	<g>
		<path class="st0" d="M113.8,369.8C51,369.8,0,318.7,0,256s51-113.8,113.8-113.8s113.8,51,113.8,113.8S176.5,369.8,113.8,369.8z
			 M113.8,184.9c-39.2,0-71.1,31.9-71.1,71.1s31.9,71.1,71.1,71.1s71.1-31.9,71.1-71.1S153,184.9,113.8,184.9z"/>
	</g>
	<g>
		<g>
			<path class="st0" d="M398.2,227.6c-62.7,0-113.8-51-113.8-113.8S335.5,0,398.2,0S512,51,512,113.8S461,227.6,398.2,227.6z
				 M398.2,42.7c-39.2,0-71.1,31.9-71.1,71.1s31.9,71.1,71.1,71.1s71.1-31.9,71.1-71.1S437.4,42.7,398.2,42.7z"/>
		</g>
		<g>
			<path class="st0" d="M398.2,512c-62.7,0-113.8-51-113.8-113.8s51-113.8,113.8-113.8S512,335.5,512,398.2S461,512,398.2,512z
				 M398.2,327.1c-39.2,0-71.1,31.9-71.1,71.1s31.9,71.1,71.1,71.1s71.1-31.9,71.1-71.1S437.4,327.1,398.2,327.1z"/>
		</g>
	</g>
	<g>
		
			<rect x="189.4" y="163.5" transform="matrix(0.8944 -0.4472 0.4472 0.8944 -55.6513 134.0141)" class="st0" width="133.2" height="42.7"/>
	</g>
	<g>
		
			<rect x="234.7" y="260.5" transform="matrix(0.4472 -0.8944 0.8944 0.4472 -151.0652 409.7733)" class="st0" width="42.7" height="133.3"/>
	</g>
</g>
</svg>
