<?xml version="1.0" encoding="utf-8"?>
<!-- Generator: Adobe Illustrator 26.2.1, SVG Export Plug-In . SVG Version: 6.00 Build 0)  -->
<svg version="1.1" id="Layer_1" xmlns="http://www.w3.org/2000/svg" xmlns:xlink="http://www.w3.org/1999/xlink" x="0px" y="0px"
	 viewBox="0 0 512 512" style="enable-background:new 0 0 512 512;" xml:space="preserve">
<style type="text/css">
	.st0{fill:#6EB7EC;}
</style>
<g>
	<g>
		<path class="st0" d="M91.7,113.3H21.3C9.6,113.3,0,103.7,0,92V21.6C0,9.9,9.6,0.3,21.3,0.3h70.4c11.7,0,21.3,9.6,21.3,21.3V92
			C113,103.7,103.6,113.3,91.7,113.3z M42.6,70.7h27.8V42.9H42.6V70.7z"/>
	</g>
	<g>
		<path class="st0" d="M490.7,113.3h-70.4c-11.7,0-21.3-9.6-21.3-21.3V21.6c0-11.7,9.6-21.3,21.3-21.3h70.4
			c11.7,0,21.3,9.6,21.3,21.3V92C512,103.7,502.5,113.3,490.7,113.3z M441.6,70.7h27.8V42.9h-27.8V70.7z"/>
	</g>
	<g>
		<path class="st0" d="M91.7,511.7H21.3C9.6,511.7,0,502.1,0,490.4V420c0-11.7,9.6-21.3,21.3-21.3h70.4c11.7,0,21.3,9.6,21.3,21.3
			v70.4C113,502.1,103.6,511.7,91.7,511.7z M42.6,469.1h27.8v-27.8H42.6V469.1z"/>
	</g>
	<g>
		<path class="st0" d="M490.7,511.7h-70.4c-11.7,0-21.3-9.6-21.3-21.3V420c0-11.7,9.6-21.3,21.3-21.3h70.4
			c11.7,0,21.3,9.6,21.3,21.3v70.4C512,502.1,502.5,511.7,490.7,511.7z M441.6,469.1h27.8v-27.8h-27.8V469.1z"/>
	</g>
	<g>
		<path class="st0" d="M56.6,441.3c-11.7,0-21.3-9.6-21.3-21.3V256c0-11.7,9.6-21.3,21.3-21.3s21.3,9.6,21.3,21.3v164
			C77.9,431.7,68.3,441.3,56.6,441.3z"/>
	</g>
	<g>
		<path class="st0" d="M56.6,159.2c-11.7,0-21.3-9.6-21.3-21.3V91.9c0-11.7,9.6-21.3,21.3-21.3s21.3,9.6,21.3,21.3v46.1
			C77.9,149.8,68.3,159.2,56.6,159.2z"/>
	</g>
	<g>
		<path class="st0" d="M420.1,78h-328c-11.7,0-21.3-9.6-21.3-21.3s9.6-21.3,21.3-21.3h328c11.7,0,21.3,9.6,21.3,21.3
			S431.9,78,420.1,78z"/>
	</g>
	<g>
		<path class="st0" d="M455.7,441.3c-11.7,0-21.3-9.6-21.3-21.3V92c0-11.7,9.6-21.3,21.3-21.3c11.7,0,21.3,9.6,21.3,21.3v328
			C477,431.7,467.5,441.3,455.7,441.3z"/>
	</g>
	<g>
		<path class="st0" d="M420.1,476.5h-328c-11.7,0-21.3-9.6-21.3-21.3c0-11.7,9.6-21.3,21.3-21.3h328c11.7,0,21.3,9.6,21.3,21.3
			C441.4,467,431.9,476.5,420.1,476.5z"/>
	</g>
	<g>
		<path class="st0" d="M73.4,400.7l-33.5-26.2c4.1-5.3,102.9-129.4,257.6-85.5c116.2,33,142.4,13.8,142.7,13.7c0,0-0.9,0.8-2.1,2.7
			l35.7,23.3c-9.1,13.8-45.5,41.8-187.8,1.3C159.1,294.1,76.8,396.3,73.4,400.7z"/>
	</g>
	<g>
		<path class="st0" d="M320,248.1c-36.2,0-65.8-29.6-65.8-65.8s29.6-65.8,65.8-65.8c36.2,0,65.8,29.6,65.8,65.8
			S356.2,248.1,320,248.1z M320,159.2c-12.8,0-23.2,10.4-23.2,23.2c0,12.8,10.4,23.2,23.2,23.2c12.8,0,23.2-10.4,23.2-23.2
			S332.8,159.2,320,159.2z"/>
	</g>
</g>
</svg>
