<?xml version="1.0" encoding="utf-8"?>
<!-- Generator: Adobe Illustrator 26.2.1, SVG Export Plug-In . SVG Version: 6.00 Build 0)  -->
<svg version="1.1" id="Layer_1" xmlns="http://www.w3.org/2000/svg" xmlns:xlink="http://www.w3.org/1999/xlink" x="0px" y="0px"
	 viewBox="0 0 1085.5 812.8" style="enable-background:new 0 0 1085.5 812.8;" xml:space="preserve">
<style type="text/css">
	.st0{fill:#FFFFFF;}
	.st1{fill:#23A5D8;}
</style>
<g>
	<path class="st0" d="M202.5,241.1H38.6C17.3,241.1,0,223.8,0,202.5V38.6C0,17.3,17.3,0,38.6,0h163.9c21.3,0,38.6,17.3,38.6,38.6
		v163.9C241.1,223.8,223.8,241.1,202.5,241.1z"/>
	<path class="st0" d="M484,241.1H320c-21.3,0-38.6-17.3-38.6-38.6V38.6C281.5,17.3,298.7,0,320,0H484c21.3,0,38.6,17.3,38.6,38.6
		v163.9C522.5,223.8,505.3,241.1,484,241.1z"/>
	<path class="st0" d="M765.4,241.1H601.5c-21.3,0-38.6-17.3-38.6-38.6V38.6c0-21.3,17.3-38.6,38.6-38.6h163.9
		C786.7,0,804,17.3,804,38.6v163.9C804,223.8,786.7,241.1,765.4,241.1z"/>
	<path class="st0" d="M202.5,526.9H38.6C17.3,526.9,0,509.7,0,488.4V324.4c0-21.3,17.3-38.6,38.6-38.6h163.9
		c21.3,0,38.6,17.3,38.6,38.6v163.9C241.1,509.7,223.8,526.9,202.5,526.9z"/>
	<path class="st0" d="M484,526.9H320c-21.3,0-38.6-17.3-38.6-38.6V324.4c0-21.3,17.3-38.6,38.6-38.6H484c21.3,0,38.6,17.3,38.6,38.6
		v163.9C522.5,509.7,505.3,526.9,484,526.9z"/>
	<path class="st0" d="M765.4,526.9H601.5c-21.3,0-38.6-17.3-38.6-38.6V324.4c0-21.3,17.3-38.6,38.6-38.6h163.9
		c21.3,0,38.6,17.3,38.6,38.6v163.9C804,509.7,786.7,526.9,765.4,526.9z"/>
	<path class="st0" d="M202.5,812.8H38.6C17.3,812.8,0,795.6,0,774.3V610.3c0-21.3,17.3-38.6,38.6-38.6h163.9
		c21.3,0,38.6,17.3,38.6,38.6v163.9C241.1,795.6,223.8,812.8,202.5,812.8z"/>
	<path class="st0" d="M484,812.8H320c-21.3,0-38.6-17.3-38.6-38.6V610.3c0-21.3,17.3-38.6,38.6-38.6H484c21.3,0,38.6,17.3,38.6,38.6
		v163.9C522.5,795.6,505.3,812.8,484,812.8z"/>
	<path class="st0" d="M765.4,812.8H601.5c-21.3,0-38.6-17.3-38.6-38.6V610.3c0-21.3,17.3-38.6,38.6-38.6h163.9
		c21.3,0,38.6,17.3,38.6,38.6v163.9C804,795.6,786.7,812.8,765.4,812.8z"/>
	<g>
		<g>
			<g>
				<g>
					<path class="st1" d="M120.5,187.5c-4.9,0-9.4-2.8-11.7-7.2l-25.2-50.4c-2.9-5.8-2.9-12.8,0-18.5l11.1-22.2
						c1.3-2.4,4.2-3.5,6.6-2.2c2.4,1.3,3.5,4.2,2.2,6.6l-11,22.1c-1.5,3-1.5,6.6,0,9.6l25.2,50.5c0.7,1.5,2.2,1.7,2.7,1.7
						c0.5,0,2-0.2,2.7-1.7l25.2-50.5c1.5-3,1.5-6.6,0-9.6l-25.1-50.4c-0.7-1.5-2.2-1.7-2.7-1.7s-2,0.2-2.7,1.7l-3.5,7.1
						c-1.3,2.4-4.2,3.5-6.7,2.2c-2.4-1.3-3.5-4.2-2.2-6.7l3.4-7.1c2.2-4.5,6.6-7.2,11.7-7.2c5,0,9.4,2.8,11.7,7.2l25.2,50.5
						c2.9,5.8,2.9,12.7,0,18.5l-25.2,50.5C130,184.7,125.5,187.5,120.5,187.5z"/>
				</g>
			</g>
			<g>
				<g>
					<path class="st1" d="M165.2,107.3c-1.8,0-3.6-1-4.5-2.8l-16.1-32.2c-1.3-2.4-0.3-5.5,2.2-6.7c2.5-1.3,5.5-0.3,6.7,2.2
						l16.1,32.2c1.3,2.4,0.3,5.5-2.2,6.7C166.8,107.1,165.9,107.3,165.2,107.3z"/>
				</g>
				<g>
					<path class="st1" d="M91.9,176.2c-1.8,0-3.6-1-4.5-2.8l-16.1-32.2c-1.3-2.4-0.3-5.5,2.2-6.6c2.4-1.3,5.5-0.3,6.6,2.2L96.3,169
						c1.3,2.4,0.3,5.5-2.2,6.6C93.4,176.1,92.6,176.2,91.9,176.2z"/>
				</g>
			</g>
		</g>
		<g>
			<path class="st1" d="M120.5,142.2c-3.1,0-6.1-0.7-8.9-2.2l-17.3-9.5c-8.1-4.4-11.7-13.9-8.5-22.6l0.9-2.5c0.9-2.6,3.8-4,6.4-3
				c2.6,0.9,4,3.8,3,6.4l-0.9,2.5c-1.4,4,0.2,8.4,4,10.4l17.3,9.4c2.5,1.3,5.7,1.4,8.2,0l17.3-9.4c3.7-2.1,5.4-6.4,4-10.4l-0.9-2.5
				c-0.9-2.6,0.4-5.5,3-6.4c2.6-0.9,5.5,0.4,6.4,3l0.9,2.5c3.1,8.6-0.4,18.1-8.5,22.6l-17.3,9.5
				C126.6,141.5,123.5,142.2,120.5,142.2z"/>
		</g>
	</g>
	<g>
		<g>
			<g>
				<path class="st1" d="M402,98.7c-2.8,0-5-2.2-5-5v-9.8c0-2.8,2.2-5,5-5s5,2.2,5,5v9.8C407,96.5,404.7,98.7,402,98.7z"/>
			</g>
			<g>
				<g>
					<g>
						<path class="st1" d="M414,125.2h-33.2v-10.5c0-2.8,2.2-5,5-5s5,2.2,5,5v0.5h23.2c4.5,0,8.3-3.7,8.3-8.3c0-4.6-3.7-8.3-8.3-8.3
							h-23.2v1.8c0,2.8-2.2,5-5,5s-5-2.2-5-5V88.8H414c10.1,0,18.2,8.2,18.2,18.2S424.1,125.2,414,125.2z"/>
					</g>
					<g>
						<path class="st1" d="M414,152h-33.2v-36.4H414c10.1,0,18.2,8.2,18.2,18.2C432.1,143.8,424.1,152,414,152z M390.8,142H414
							c4.5,0,8.3-3.7,8.3-8.3c0-4.5-3.7-8.2-8.3-8.2h-23.2V142z"/>
					</g>
				</g>
				<g>
					<path class="st1" d="M393,152h-16.3c-2.8,0-5-2.2-5-5c0-2.8,2.2-5,5-5H393c2.8,0,5,2.2,5,5C398,149.8,395.8,152,393,152z"/>
				</g>
				<g>
					<path class="st1" d="M393,98.7h-16.3c-2.8,0-5-2.2-5-5s2.2-5,5-5H393c2.8,0,5,2.2,5,5S395.8,98.7,393,98.7z"/>
				</g>
			</g>
			<g>
				<path class="st1" d="M402,162.1c-2.8,0-5-2.2-5-5V147c0-2.8,2.2-5,5-5s5,2.2,5,5v10.1C407,159.8,404.7,162.1,402,162.1z"/>
			</g>
		</g>
		<g>
			<path class="st1" d="M402,187c-36.7,0-66.4-29.8-66.4-66.4c0-36.7,29.7-66.5,66.4-66.5c7.5,0,14.9,1.3,22,3.8
				c2.6,0.9,4,3.8,3.1,6.4c-0.9,2.6-3.8,4-6.4,3.1c-6-2.1-12.3-3.1-18.7-3.1c-31.2,0-56.4,25.3-56.4,56.4S370.9,177,402,177
				s56.4-25.3,56.4-56.4c0-9.1-2.1-17.7-6.1-25.6c-1.3-2.4-0.3-5.5,2.2-6.7c2.4-1.3,5.5-0.3,6.7,2.2c4.8,9.4,7.3,19.6,7.3,30.2
				C468.4,157.1,438.6,187,402,187z"/>
		</g>
	</g>
	<g>
		<g>
			<path class="st1" d="M683.2,179.9c-0.9,0-1.7-0.2-2.5-0.6l-46.9-27c-1.5-0.9-2.5-2.5-2.5-4.3v-15.7c0-2.8,2.2-5,5-5
				c2.8,0,5,2.2,5,5v12.8l42,24.2l42-24.2V96.5l-42-24.2l-42,24.2v12.4c0,2.8-2.2,5-5,5c-2.8,0-5-2.2-5-5V93.6c0-1.8,1-3.4,2.5-4.3
				l46.9-27c1.5-0.9,3.4-0.9,5,0l46.9,27c1.5,0.9,2.5,2.5,2.5,4.3v54.2c0,1.8-1,3.4-2.5,4.3l-46.9,27
				C685,179.7,684.1,179.9,683.2,179.9z"/>
		</g>
		<g>
			<path class="st1" d="M683.2,152c-2,0-4-0.5-5.8-1.5l-17.1-9.9c-3.6-2.1-5.8-5.9-5.8-10.1v-19.7c0-4.1,2.2-8,5.8-10.1l17.1-9.8
				c3.6-2.1,8.1-2.1,11.7,0l17.1,9.9c3.6,2.1,5.8,5.9,5.8,10.1v19.7c0,4.1-2.2,8-5.8,10.1l-17.1,9.9
				C687.3,151.5,685.3,152,683.2,152z M683.2,99.4c-0.3,0-0.5,0.1-0.8,0.2l-17.1,9.9c-0.5,0.3-0.8,0.8-0.8,1.4v19.7
				c0,0.6,0.4,1.2,0.8,1.4l17.1,9.9c0.5,0.3,1.2,0.3,1.6,0l17.1-9.9c0.5-0.3,0.8-0.8,0.8-1.4v-19.7c0-0.6-0.4-1.2-0.8-1.4L684,99.5
				C683.9,99.5,683.6,99.4,683.2,99.4z"/>
		</g>
		<g>
			<path class="st1" d="M683.2,125.8c-0.9,0-1.7-0.3-2.5-0.7l-22.1-12.8c-2.4-1.3-3.2-4.4-1.8-6.8c1.3-2.4,4.4-3.2,6.8-1.8
				l19.6,11.4l19.2-11.1c2.4-1.3,5.5-0.5,6.8,1.8c1.3,2.4,0.5,5.5-1.8,6.8l-21.7,12.5C684.9,125.5,684.1,125.8,683.2,125.8z"/>
		</g>
		<g>
			<circle class="st1" cx="683.2" cy="66.7" r="12.6"/>
		</g>
		<g>
			<circle class="st1" cx="683.2" cy="174.4" r="12.6"/>
		</g>
		<g>
			<g>
				<circle class="st1" cx="637.5" cy="149.1" r="12.6"/>
			</g>
			<g>
				<circle class="st1" cx="637.5" cy="92.4" r="12.6"/>
			</g>
		</g>
		<g>
			<g>
				<circle class="st1" cx="729.4" cy="149.2" r="12.6"/>
			</g>
			<g>
				<circle class="st1" cx="729.4" cy="92.5" r="12.6"/>
			</g>
		</g>
		<g>
			<path class="st1" d="M683.2,151.9c-2.8,0-5-2.2-5-5v-26.1c0-2.8,2.2-5,5-5c2.8,0,5,2.2,5,5v26.1
				C688.3,149.7,686,151.9,683.2,151.9z"/>
		</g>
	</g>
	<g>
		<g>
			<path class="st1" d="M120.6,752c-2,0-4-0.1-5.8-0.3c-2.8-0.3-4.8-2.7-4.5-5.5c0.3-2.8,2.7-4.8,5.5-4.5c1.6,0.2,3.2,0.3,4.9,0.3
				c27.5,0,49.9-22.4,49.9-49.9s-22.4-49.9-49.9-49.9s-49.9,22.5-49.9,49.9c0,6.8,1.3,13.4,4,19.6c1.9,4.5,4.5,8.7,7.6,12.4
				c1.8,2.2,1.5,5.3-0.6,7c-2.2,1.8-5.3,1.5-7-0.6c-3.8-4.5-6.9-9.5-9.2-14.9c-3.1-7.5-4.8-15.4-4.8-23.5c0-33,26.9-59.8,59.8-59.8
				s59.8,26.9,59.8,59.8C180.4,725.1,153.5,752,120.6,752z"/>
		</g>
		<g>
			<circle class="st1" cx="65.4" cy="692.2" r="11.4"/>
		</g>
		<g>
			<circle class="st1" cx="175.7" cy="692.3" r="11.4"/>
		</g>
		<g>
			
				<ellipse transform="matrix(3.327798e-02 -0.9994 0.9994 3.327798e-02 -630.5244 842.9567)" class="st1" cx="120.5" cy="747.4" rx="11.4" ry="11.4"/>
		</g>
		<g>
			
				<ellipse transform="matrix(3.327796e-02 -0.9994 0.9994 3.327796e-02 -520.2533 736.47)" class="st1" cx="120.6" cy="637.2" rx="11.4" ry="11.4"/>
		</g>
		<g>
			
				<ellipse transform="matrix(0.9951 -9.853766e-02 9.853766e-02 0.9951 -71.2873 19.2737)" class="st1" cx="159.5" cy="731.3" rx="11.4" ry="11.4"/>
		</g>
		<g>
			<circle class="st1" cx="81.6" cy="653.3" r="11.4"/>
		</g>
		<g>
			<circle class="st1" cx="81.5" cy="731.2" r="11.4"/>
		</g>
		<g>
			<circle class="st1" cx="159.6" cy="653.3" r="11.4"/>
		</g>
		<g>
			<path class="st1" d="M118.7,720.8h-6.3c-6.6,0-11.9-5.3-11.9-11.9v-33.4c0-6.6,5.3-11.9,11.9-11.9h6.3c12,0,21.8,9.8,21.8,21.8
				V699C140.5,710.9,130.7,720.8,118.7,720.8z M112.4,673.6c-1.1,0-1.9,0.8-1.9,1.9v33.4c0,1.1,0.8,1.9,1.9,1.9h6.3
				c6.6,0,11.9-5.3,11.9-11.9v-13.5c0-6.6-5.3-11.9-11.9-11.9L112.4,673.6L112.4,673.6z"/>
		</g>
	</g>
	<g>
		<g>
			<path class="st1" d="M454,682.4h-25.3c-9.3,0-16.9-7.5-16.9-16.9v-25.3c0-2.8,2.2-5,5-5s5,2.2,5,5v25.3c0,3.8,3.1,6.9,6.9,6.9
				h25.3c2.8,0,5,2.2,5,5C459.2,680.2,456.7,682.4,454,682.4z"/>
		</g>
		<g>
			<path class="st1" d="M445.1,752.4h-1.5c-2.8,0-5-2.2-5-5c0-2.8,2.2-5,5-5h1.5c3.8,0,6.9-3.1,6.9-6.9v-54.6c0-1.9-0.7-3.6-2.1-4.9
				l-31.7-31.7c-1.3-1.3-3.1-2.1-4.9-2.1h-30.8c-3.8,0-6.9,3.1-6.9,6.9v86.3c0,3.8,3.1,6.9,6.9,6.9h37.2c2.8,0,5,2.2,5,5
				c0,2.8-2.2,5-5,5h-37.2c-9.3,0-16.9-7.5-16.9-16.9v-86.3c0-9.3,7.5-16.9,16.9-16.9h30.8c4.5,0,8.8,1.8,11.9,4.9l31.7,31.7
				c3.2,3.2,4.9,7.5,4.9,11.9v54.6C461.9,744.8,454.4,752.4,445.1,752.4z"/>
		</g>
		<g>
			<g>
				<path class="st1" d="M400.8,669H387c-2.8,0-5-2.2-5-5c0-2.8,2.2-5,5-5h13.8c2.8,0,5,2.2,5,5C405.8,666.8,403.6,669,400.8,669z"
					/>
			</g>
			<g>
				<path class="st1" d="M400.8,687.9H387c-2.8,0-5-2.2-5-5c0-2.8,2.2-5,5-5h13.8c2.8,0,5,2.2,5,5
					C405.8,685.6,403.6,687.9,400.8,687.9z"/>
			</g>
			<g>
				<path class="st1" d="M437.6,706.8H387c-2.8,0-5-2.2-5-5c0-2.8,2.2-5,5-5h50.6c2.8,0,5,2.2,5,5
					C442.6,704.5,440.4,706.8,437.6,706.8z"/>
			</g>
			<g>
				<path class="st1" d="M437.6,725.6H387c-2.8,0-5-2.2-5-5s2.2-5,5-5h50.6c2.8,0,5,2.2,5,5S440.4,725.6,437.6,725.6z"/>
			</g>
		</g>
		<g>
			<path class="st1" d="M370.7,697.3h-23.4c-2.8,0-5-2.2-5-5c0-2.8,2.2-5,5-5h23.4c2.8,0,5,2.2,5,5
				C375.7,695.1,373.4,697.3,370.7,697.3z"/>
		</g>
		<g>
			<path class="st1" d="M370.7,672.3h-18.2c-1.3,0-2.6-0.5-3.5-1.4l-5.3-5.3c-2-2-2-5.1,0-7.1c2-2,5.1-2,7.1,0l3.8,3.8h16.2
				c2.8,0,5,2.2,5,5C375.7,670.1,373.4,672.3,370.7,672.3z"/>
		</g>
		<g>
			<path class="st1" d="M347.1,727.5c-1.3,0-2.5-0.4-3.5-1.4c-2-2-2-5.1,0-7.1l5.3-5.3c0.9-0.9,2.2-1.4,3.5-1.4h18.2
				c2.8,0,5,2.2,5,5c0,2.8-2.2,5-5,5h-16.2l-3.8,3.8C349.6,727.1,348.4,727.5,347.1,727.5z"/>
		</g>
	</g>
	<g>
		<g>
			<path class="st1" d="M661.1,713.7c-1.9,0-3.7-1.1-4.5-2.9l-6.2-12.9v10.8c0,2.8-2.2,5-5,5c-2.8,0-5-2.2-5-5v-32.9
				c0-2.3,1.6-4.3,3.9-4.9c2.2-0.5,4.6,0.6,5.6,2.7l6.2,12.9v-10.8c0-2.8,2.2-5,5-5c2.8,0,5,2.2,5,5v32.9c0,2.3-1.6,4.3-3.9,4.9
				C661.8,713.6,661.5,713.7,661.1,713.7z"/>
		</g>
		<g>
			<g>
				<path class="st1" d="M675.1,713.7c-2.8,0-5-2.2-5-5v-32.9c0-2.8,2.2-5,5-5h16.5c2.8,0,5,2.2,5,5c0,2.8-2.2,5-5,5h-11.6v27.9
					C680.2,711.5,677.9,713.7,675.1,713.7z"/>
			</g>
			<g>
				<path class="st1" d="M691.7,697.4h-16.3c-2.8,0-5-2.2-5-5c0-2.8,2.2-5,5-5h16.4c2.8,0,5,2.2,5,5
					C696.7,695.1,694.5,697.4,691.7,697.4z"/>
			</g>
		</g>
		<g>
			<g>
				<path class="st1" d="M721.8,680.8h-15.6c-2.8,0-5-2.2-5-5c0-2.8,2.2-5,5-5h15.6c2.8,0,5,2.2,5,5
					C726.7,678.6,724.6,680.8,721.8,680.8z"/>
			</g>
			<g>
				<path class="st1" d="M714,713.7c-2.8,0-5-2.2-5-5v-32.9c0-2.8,2.2-5,5-5c2.8,0,5,2.2,5,5v32.9
					C718.9,711.5,716.7,713.7,714,713.7z"/>
			</g>
		</g>
		<g>
			<path class="st1" d="M714.5,745.4h-61.8c-7,0-13.6-4-16.7-10.2l-17.2-34.7c-2.5-5.1-2.5-11.1,0-16.3l17.3-34.8
				c3.1-6.3,9.6-10.3,16.7-10.3h30.7c2.8,0,5,2.2,5,5c0,2.8-2.2,5-5,5h-30.7c-3.3,0-6.4,1.9-7.7,4.8l-17.3,34.8
				c-1.2,2.3-1.2,5,0,7.4l17.2,34.7c1.4,2.9,4.5,4.8,7.7,4.8h61.8c3.3,0,6.4-1.9,7.8-4.8l16.9-34.7c1.2-2.3,1.2-4.9,0-7.3
				l-16.9-34.8c-1.4-2.9-4.5-4.8-7.8-4.8h-6.6c-2.8,0-5-2.2-5-5c0-2.8,2.2-5,5-5h6.6c7.1,0,13.7,4,16.8,10.4l16.9,34.8
				c2.4,5.1,2.4,10.9,0,16l-16.9,34.7C728.2,741.4,721.6,745.4,714.5,745.4z"/>
		</g>
		<g>
			<path class="st1" d="M683.4,665.6h-30.1c-2.8,0-5-2.2-5-5c0-2.8,2.2-5,5-5h30.1c2.8,0,5,2.2,5,5
				C688.4,663.4,686.2,665.6,683.4,665.6z"/>
		</g>
		<g>
			<g>
				<path class="st1" d="M713.9,728.9h-46.3c-2.8,0-5-2.2-5-5c0-2.8,2.2-5,5-5h46.3c2.8,0,5,2.2,5,5
					C718.9,726.7,716.6,728.9,713.9,728.9z"/>
			</g>
			<g>
				<circle class="st1" cx="653.2" cy="723.9" r="4.9"/>
			</g>
		</g>
	</g>
	<g>
		<g>
			<path class="st1" d="M162,466.3h-41.5c-2.8,0-5-2.2-5-5s2.2-5,5-5H162c4.6,0,8.4-3.8,8.4-8.4v-51c0-4.6-3.8-8.4-8.4-8.4H79.1
				c-4.6,0-8.4,3.8-8.4,8.4v51c0,4.6,3.8,8.4,8.4,8.4h11.8c2.8,0,5,2.2,5,5s-2.2,5-5,5H79.1c-10.1,0-18.3-8.2-18.3-18.3v-51
				c0-10.1,8.2-18.3,18.3-18.3H162c10.1,0,18.3,8.2,18.3,18.3v51C180.2,458,172.1,466.3,162,466.3z"/>
		</g>
		<g>
			<path class="st1" d="M73.9,389.5c-1.8,0-3.5-1-4.4-2.6c-1.3-2.4-0.4-5.5,2.1-6.7l58.5-31.4c5.8-3.1,12.5-3,18.1,0.4
				c5.6,3.3,8.9,9.2,8.9,15.7v3.9c0,2.8-2.2,5-5,5c-2.8,0-5-2.2-5-5v-3.9c0-3-1.5-5.7-4-7.1c-2.5-1.5-5.6-1.6-8.2-0.2l-58.5,31.4
				C75.5,389.4,74.7,389.5,73.9,389.5z"/>
		</g>
		<g>
			<path class="st1" d="M146.2,438c-8.5,0-15.5-7-15.5-15.5s7-15.5,15.5-15.5s15.5,7,15.5,15.5S154.7,438,146.2,438z M146.2,416.9
				c-3.1,0-5.6,2.5-5.6,5.6c0,3.1,2.5,5.6,5.6,5.6c3.1,0,5.6-2.5,5.6-5.6C151.8,419.4,149.2,416.9,146.2,416.9z"/>
		</g>
	</g>
	<g>
		<g>
			<path class="st1" d="M378.7,466.5h-18.5c-10.1,0-18.3-8.2-18.3-18.3v-18.5c0-2.8,2.2-5,5-5s5,2.2,5,5v18.6c0,4.6,3.8,8.4,8.4,8.4
				h18.5c2.8,0,5,2.2,5,5C383.8,464.2,381.5,466.5,378.7,466.5z"/>
		</g>
		<g>
			<path class="st1" d="M443.7,466.5h-18.5c-2.8,0-5-2.2-5-5c0-2.8,2.2-5,5-5h18.5c4.6,0,8.4-3.8,8.4-8.4v-18.5c0-2.8,2.2-5,5-5
				s5,2.2,5,5v18.7C462,458.3,453.7,466.5,443.7,466.5z"/>
		</g>
		<g>
			<path class="st1" d="M457,388.3c-2.8,0-5-2.2-5-5v-18.5c0-4.6-3.8-8.4-8.4-8.4h-18.5c-2.8,0-5-2.2-5-5s2.2-5,5-5h18.5
				c10.1,0,18.3,8.2,18.3,18.3v18.5C462,386.1,459.8,388.3,457,388.3z"/>
		</g>
		<g>
			<path class="st1" d="M346.9,388.3c-2.8,0-5-2.2-5-5v-18.5c0-10.1,8.2-18.3,18.3-18.3h18.5c2.8,0,5,2.2,5,5s-2.2,5-5,5h-18.5
				c-4.6,0-8.4,3.8-8.4,8.4v18.5C351.9,386.1,349.7,388.3,346.9,388.3z"/>
		</g>
		<g>
			<path class="st1" d="M413.2,432.2c-1.8,0-3.5-1-4.4-2.6c-1.3-2.4-0.4-5.5,2.1-6.7c6-3.2,9.7-9.4,9.7-16.3
				c0-10.2-8.3-18.4-18.4-18.4c-10.2,0-18.4,8.3-18.4,18.4c0,2.8-2.2,5-5,5s-5-2.2-5-5c0-15.6,12.8-28.4,28.4-28.4
				s28.4,12.8,28.4,28.4c0,10.5-5.8,20-15,25.1C414.8,432.1,414,432.2,413.2,432.2z"/>
		</g>
		<g>
			<path class="st1" d="M443.6,411.6c-2.8,0-5-2.2-5-5c0-20.1-16.4-36.5-36.5-36.5c-2.8,0-5-2.2-5-5s2.2-5,5-5
				c25.6,0,46.5,20.8,46.5,46.5C448.6,409.3,446.4,411.6,443.6,411.6z"/>
		</g>
		<g>
			<path class="st1" d="M402.2,453.1c-2.8,0-5-2.2-5-5s2.2-5,5-5c12.1,0,23.5-6,30.3-16.1c1.5-2.2,4.7-2.9,6.9-1.3
				c2.2,1.5,2.9,4.7,1.3,6.9C432,445.4,417.6,453.1,402.2,453.1z"/>
		</g>
		<g>
			<path class="st1" d="M360.7,411.6c-2.8,0-5-2.2-5-5c0-12.3,4.8-24,13.5-32.7c2-2,5.1-2,7.1,0c2,2,2,5.1,0,7.1
				c-6.8,6.9-10.6,16-10.6,25.7C365.7,409.3,363.4,411.6,360.7,411.6z"/>
		</g>
		<g>
			<path class="st1" d="M371.7,439.8c-2.4,0-4.6-1.8-4.9-4.3c-0.4-2.7,1.5-5.2,4.3-5.6c0.8-0.1,19.7-3.1,26.3-24.7
				c0.8-2.6,3.6-4.1,6.2-3.3c2.6,0.8,4.1,3.6,3.3,6.2c-8.6,27.9-33.5,31.5-34.6,31.6C372.2,439.8,371.9,439.8,371.7,439.8z"/>
		</g>
	</g>
	<g>
		<path class="st0" d="M1046.9,241.1H883c-21.3,0-38.6-17.3-38.6-38.6V38.6C844.4,17.3,861.7,0,883,0h163.9
			c21.3,0,38.6,17.3,38.6,38.6v163.9C1085.5,223.8,1068.2,241.1,1046.9,241.1z"/>
		<g>
			<g>
				<path class="st1" d="M1013.3,173.8h-96.9c-10.1,0-18.3-8.2-18.3-18.3V85.6c0-10.1,8.2-18.3,18.3-18.3h96.9
					c10.1,0,18.3,8.2,18.3,18.3v5.1c0,2.8-2.2,5-5,5c-2.8,0-5-2.2-5-5v-5.1c0-4.6-3.8-8.4-8.4-8.4h-96.8c-4.6,0-8.4,3.8-8.4,8.4
					v69.8c0,4.6,3.8,8.4,8.4,8.4h96.9c4.6,0,8.4-3.8,8.4-8.4v-35c0-2.8,2.2-5,5-5c2.8,0,5,2.2,5,5v35
					C1031.6,165.5,1023.4,173.8,1013.3,173.8z"/>
			</g>
			<g>
				<path class="st1" d="M930.4,112.9c-8.4,0-15.1-6.7-15.1-15.1s6.7-15.1,15.1-15.1c8.4,0,15.1,6.7,15.1,15.1
					S938.6,112.9,930.4,112.9z M930.4,92.7c-2.8,0-5.1,2.3-5.1,5.1s2.3,5.1,5.1,5.1s5.1-2.3,5.1-5.1C935.5,95,933.2,92.7,930.4,92.7
					z"/>
			</g>
			<g>
				<path class="st1" d="M1009.7,95.7h-54.4c-2.8,0-5-2.2-5-5s2.2-5,5-5h54.4c2.8,0,5,2.2,5,5S1012.5,95.7,1009.7,95.7z"/>
			</g>
			<g>
				<path class="st1" d="M982.6,110h-27.1c-2.8,0-5-2.2-5-5c0-2.8,2.2-5,5-5h27.1c2.8,0,5,2.2,5,5C987.6,107.7,985.4,110,982.6,110z
					"/>
			</g>
			<g>
				<path class="st1" d="M928.3,157.2h-4.8c-4.6,0-8.4-3.8-8.4-8.4v-23c0-4.6,3.8-8.4,8.4-8.4h4.8c9.5,0,17.3,7.8,17.3,17.3v5
					C945.7,149.4,937.8,157.2,928.3,157.2z M925.3,147.3h3.1c4,0,7.4-3.3,7.4-7.4v-5c0-4-3.3-7.4-7.4-7.4h-3.1V147.3z"/>
			</g>
			<g>
				<path class="st1" d="M981.5,157.2h-4.8c-4.6,0-8.4-3.8-8.4-8.4v-23c0-4.6,3.8-8.4,8.4-8.4h4.8c9.5,0,17.3,7.8,17.3,17.3v5
					C998.8,149.4,991,157.2,981.5,157.2z M978.5,147.3h3.1c4,0,7.4-3.3,7.4-7.4v-5c0-4-3.3-7.4-7.4-7.4h-3.1V147.3z"/>
			</g>
			<g>
				<path class="st1" d="M956.6,157.2c-2.8,0-5-2.2-5-5v-29.7c0-2.8,2.2-5,5-5c2.8,0,5,2.2,5,5v29.7
					C961.6,155,959.4,157.2,956.6,157.2z"/>
			</g>
		</g>
	</g>
	<g>
		<path class="st0" d="M1046.9,526.9H883c-21.3,0-38.6-17.3-38.6-38.6V324.4c0-21.3,17.3-38.6,38.6-38.6h163.9
			c21.3,0,38.6,17.3,38.6,38.6v163.9C1085.5,509.7,1068.2,526.9,1046.9,526.9z"/>
		<g>
			<g>
				<path class="st1" d="M980.7,466.5h-64c-6.4,0-11.7-5.2-11.7-11.7v-6c0-6.4,5.2-11.7,11.7-11.7h64c6.4,0,11.7,5.2,11.7,11.7v6
					C992.2,461.1,987,466.5,980.7,466.5z M916.7,447c-0.9,0-1.7,0.7-1.7,1.7v6c0,0.9,0.7,1.7,1.7,1.7h64c0.9,0,1.7-0.7,1.7-1.7v-6
					c0-0.9-0.7-1.7-1.7-1.7H916.7z"/>
			</g>
			<g>
				<path class="st1" d="M980.6,440.6h-10v-75.7c0-4.6-3.8-8.4-8.4-8.4H935c-4.6,0-8.4,3.8-8.4,8.4v75.7h-10v-75.7
					c0-10.1,8.2-18.3,18.3-18.3h27.2c10.1,0,18.3,8.2,18.3,18.3L980.6,440.6L980.6,440.6z"/>
			</g>
			<g>
				<path class="st1" d="M931,386.2h-9.2c-2.8,0-5-2.2-5-5c0-2.8,2.2-5,5-5h9.2c2.8,0,5,2.2,5,5C936,384,933.7,386.2,931,386.2z"/>
			</g>
			<g>
				<path class="st1" d="M975.6,386.2h-24.4c-2.8,0-5-2.2-5-5c0-2.8,2.2-5,5-5h24.4c2.8,0,5,2.2,5,5
					C980.7,384,978.3,386.2,975.6,386.2z"/>
			</g>
			<g>
				<path class="st1" d="M1019.2,396.6c-1.3,0-2.5-0.4-3.5-1.4l-13.8-13.8c-0.9-0.9-1.4-2.2-1.4-3.5v-20c0-2.8,2.2-5,5-5
					c2.8,0,5,2.2,5,5v18l12.4,12.4c2,2,2,5.1,0,7.1C1021.7,396.2,1020.5,396.6,1019.2,396.6z"/>
			</g>
			<g>
				<path class="st1" d="M1007.4,433.7c-9.6,0-17.4-7.8-17.4-17.4v-11c0-4.1-3.3-7.5-7.5-7.5h-6.9c-2.8,0-5-2.2-5-5s2.2-5,5-5h6.9
					c9.6,0,17.4,7.8,17.4,17.4v11c0,4.1,3.3,7.5,7.5,7.5s7.5-3.3,7.5-7.5v-43.3l-18-18c-2-2-2-5.1,0-7.1s5.1-2,7.1,0l19.4,19.4
					c0.9,0.9,1.4,2.2,1.4,3.5v45.4C1024.9,425.8,1017,433.7,1007.4,433.7z"/>
			</g>
		</g>
	</g>
	<g>
		<g>
			<g>
				<path class="st1" d="M639.7,392.4h-11.4c-2.8,0-5-2.2-5-5v-35.8c0-2.8,2.2-5,5-5h11.4c10.1,0,18.3,8.2,18.3,18.3v9.3
					C658,384.2,649.8,392.4,639.7,392.4z M633.2,382.4h6.5c4.6,0,8.4-3.8,8.4-8.4v-9.3c0-4.6-3.8-8.4-8.4-8.4h-6.5V382.4z"/>
			</g>
			<g>
				<g>
					<path class="st1" d="M695.9,392.4h-24.7c-2.8,0-5-2.2-5-5v-35.8c0-2.8,2.2-5,5-5h24.7c2.8,0,5,2.2,5,5s-2.2,5-5,5h-19.8v25.9
						h19.8c2.8,0,5,2.2,5,5C700.8,390.1,698.6,392.4,695.9,392.4z"/>
				</g>
				<g>
					<path class="st1" d="M691.3,374.4h-20.1c-2.8,0-5-2.2-5-5s2.2-5,5-5h20.1c2.8,0,5,2.2,5,5S694,374.4,691.3,374.4z"/>
				</g>
			</g>
			<g>
				<g>
					<path class="st1" d="M738.6,392.4c-1.6,0-3.1-0.7-4.1-2.2l-24.7-35.8c-1.5-2.2-1-5.4,1.3-6.9c2.2-1.5,5.4-1,6.9,1.3l24.7,35.8
						c1.5,2.2,1,5.4-1.3,6.9C740.6,392.1,739.6,392.4,738.6,392.4z"/>
				</g>
				<g>
					<path class="st1" d="M713.9,392.4c-1,0-2-0.3-2.8-0.9c-2.2-1.5-2.9-4.7-1.3-6.9l24.7-35.8c1.5-2.2,4.7-2.9,6.9-1.3
						c2.2,1.5,2.9,4.7,1.3,6.9l-24.7,35.8C717.1,391.7,715.4,392.4,713.9,392.4z"/>
				</g>
			</g>
		</g>
		<g>
			<g>
				<path class="st1" d="M628.3,452.6c-2.8,0-5-2.2-5-5V408c0-2.8,2.2-5,5-5c2.8,0,5,2.2,5,5v39.5
					C633.2,450.3,631.1,452.6,628.3,452.6z"/>
			</g>
			<g>
				<path class="st1" d="M646.7,441.5c-2.8,0-5-2.2-5-5v-17.4c0-2.8,2.2-5,5-5c2.8,0,5,2.2,5,5v17.4
					C651.7,439.3,649.4,441.5,646.7,441.5z"/>
			</g>
			<g>
				<path class="st1" d="M665,466.3c-2.8,0-5-2.2-5-5v-30.9c0-2.8,2.2-5,5-5c2.8,0,5,2.2,5,5v30.9
					C670.1,464.1,667.8,466.3,665,466.3z"/>
			</g>
			<g>
				<path class="st1" d="M683.5,443.9c-2.8,0-5-2.2-5-5v-30.9c0-2.8,2.2-5,5-5c2.8,0,5,2.2,5,5v30.9
					C688.4,441.6,686.2,443.9,683.5,443.9z"/>
			</g>
			<g>
				<path class="st1" d="M701.9,457.6c-2.8,0-5-2.2-5-5v-33.5c0-2.8,2.2-5,5-5c2.8,0,5,2.2,5,5v33.5
					C706.8,455.4,704.6,457.6,701.9,457.6z"/>
			</g>
			<g>
				<path class="st1" d="M720.2,466.3c-2.8,0-5-2.2-5-5v-15.5c0-2.8,2.2-5,5-5c2.8,0,5,2.2,5,5v15.5
					C725.2,464.1,723,466.3,720.2,466.3z"/>
			</g>
			<g>
				<path class="st1" d="M738.6,466.3c-2.8,0-5-2.2-5-5v-32.2c0-2.8,2.2-5,5-5c2.8,0,5,2.2,5,5v32.2
					C743.6,464.1,741.4,466.3,738.6,466.3z"/>
			</g>
		</g>
	</g>
	<g>
		<path class="st0" d="M1046.9,812.8H883c-21.3,0-38.6-17.3-38.6-38.6V610.3c0-21.3,17.3-38.6,38.6-38.6h163.9
			c21.3,0,38.6,17.3,38.6,38.6v163.9C1085.5,795.6,1068.2,812.8,1046.9,812.8z"/>
		<g>
			<g>
				<g>
					<path class="st1" d="M934.6,678.3h-11.4c-10.1,0-18.3-8.2-18.3-18.3v-9.2c0-10.1,8.2-18.3,18.3-18.3h11.4c2.8,0,5,2.2,5,5
						c0,2.8-2.2,5-5,5h-11.4c-4.6,0-8.4,3.8-8.4,8.4v9.3c0,4.6,3.8,8.4,8.4,8.4h11.4c2.8,0,5,2.2,5,5
						C939.5,676,937.3,678.3,934.6,678.3z"/>
				</g>
				<g>
					<g>
						<path class="st1" d="M977.3,678.3h-24.7c-2.8,0-5-2.2-5-5v-35.8c0-2.8,2.2-5,5-5h24.7c2.8,0,5,2.2,5,5c0,2.8-2.2,5-5,5h-19.8
							v25.9h19.8c2.8,0,5,2.2,5,5C982.4,676,980.1,678.3,977.3,678.3z"/>
					</g>
					<g>
						<path class="st1" d="M972.7,660.4h-20.1c-2.8,0-5-2.2-5-5c0-2.8,2.2-5,5-5h20.1c2.8,0,5,2.2,5,5
							C977.8,658.1,975.5,660.4,972.7,660.4z"/>
					</g>
				</g>
				<g>
					<g>
						<path class="st1" d="M1020.2,678.3c-1.6,0-3.1-0.7-4.1-2.2l-24.7-35.8c-1.5-2.2-1-5.4,1.3-6.9c2.2-1.5,5.4-1,6.9,1.3
							l24.7,35.8c1.5,2.2,1,5.4-1.3,6.9C1022.1,678,1021.1,678.3,1020.2,678.3z"/>
					</g>
					<g>
						<path class="st1" d="M995.4,678.3c-1,0-2-0.3-2.8-0.9c-2.2-1.5-2.9-4.7-1.3-6.9l24.7-35.8c1.5-2.2,4.7-2.9,6.9-1.3
							c2.2,1.5,2.9,4.7,1.3,6.9l-24.7,35.8C998.5,677.6,997,678.3,995.4,678.3z"/>
					</g>
				</g>
			</g>
			<g>
				<g>
					<path class="st1" d="M909.8,752.2c-2.8,0-5-2.2-5-5v-26.7c0-2.8,2.2-5,5-5c2.8,0,5,2.2,5,5v26.7
						C914.8,750,912.5,752.2,909.8,752.2z"/>
				</g>
				<g>
					<path class="st1" d="M928.2,727.4c-2.8,0-5-2.2-5-5V705c0-2.8,2.2-5,5-5c2.8,0,5,2.2,5,5v17.4
						C933.2,725.2,931,727.4,928.2,727.4z"/>
				</g>
				<g>
					<path class="st1" d="M946.6,738.9c-2.8,0-5-2.2-5-5v-40c0-2.8,2.2-5,5-5c2.8,0,5,2.2,5,5v40
						C951.5,736.7,949.4,738.9,946.6,738.9z"/>
				</g>
				<g>
					<path class="st1" d="M964.9,729.8c-2.8,0-5-2.2-5-5v-17c0-2.8,2.2-5,5-5c2.8,0,5,2.2,5,5v17C970,727.6,967.7,729.8,964.9,729.8
						z"/>
				</g>
				<g>
					<path class="st1" d="M983.3,738.7c-2.8,0-5-2.2-5-5v-33.7c0-2.8,2.2-5,5-5c2.8,0,5,2.2,5,5v33.7
						C988.4,736.4,986.1,738.7,983.3,738.7z"/>
				</g>
				<g>
					<path class="st1" d="M1001.8,752.2c-2.8,0-5-2.2-5-5v-26.7c0-2.8,2.2-5,5-5c2.8,0,5,2.2,5,5v26.7
						C1006.7,750,1004.5,752.2,1001.8,752.2z"/>
				</g>
				<g>
					<path class="st1" d="M1020.1,743.6c-2.8,0-5-2.2-5-5v-42.1c0-2.8,2.2-5,5-5c2.8,0,5,2.2,5,5v42.1
						C1025.1,741.3,1022.9,743.6,1020.1,743.6z"/>
				</g>
			</g>
		</g>
	</g>
</g>
</svg>
